<svg xmlns="http://www.w3.org/2000/svg" viewBox="0 0 100 100" width="100%" height="100%">
  <rect width="100" height="100" rx="22" fill="#232E3C" />
  
  <!-- Notebook cover -->
  <rect x="20" y="16" width="62" height="68" rx="6" fill="#EAE3D2" stroke="#C99A2E" stroke-width="2.5" />
  
  <!-- Spine / Binding -->
  <path d="M 20 22 C 20 18.7 22.7 16 26 16 L 35 16 L 35 84 L 26 84 C 22.7 84 20 81.3 20 78 Z" fill="#9C4221" />
  
  <!-- Ring binder rings -->
  <rect x="32" y="24" width="6" height="3" rx="1.5" fill="#C99A2E" />
  <rect x="32" y="40" width="6" height="3" rx="1.5" fill="#C99A2E" />
  <rect x="32" y="56" width="6" height="3" rx="1.5" fill="#C99A2E" />
  <rect x="32" y="72" width="6" height="3" rx="1.5" fill="#C99A2E" />

  <!-- Monogram 'S' -->
  <path d="M 64 36 C 64 30, 47 30, 47 42 C 47 54, 65 50, 65 62 C 65 74, 46 74, 46 67" 
        fill="none" 
        stroke="#232E3C" 
        stroke-width="5.5" 
        stroke-linecap="round" 
        stroke-linejoin="round" />
        
  <!-- Sparkle accent -->
  <path d="M 67 24 L 68.5 28.5 L 73 30 L 68.5 31.5 L 67 36 L 65.5 31.5 L 61 30 L 65.5 28.5 Z" fill="#3F5D45" />
</svg>